<svg width="24" height="24" viewBox="0 0 24 24" fill="none" xmlns="http://www.w3.org/2000/svg">
<path d="M11.2772 4.00319C11.5716 3.97599 11.8547 4.12457 11.9999 4.3821C12.145 4.63963 12.1258 4.95882 11.9501 5.19655C11.2524 6.14046 10.9165 7.30334 11.0038 8.47389C11.0912 9.64435 11.5957 10.7444 12.4256 11.5745C13.2557 12.4044 14.3558 12.909 15.5262 12.9964C16.6969 13.0836 17.8597 12.7477 18.8036 12.0501C19.0413 11.8743 19.3605 11.8551 19.618 12.0003C19.8755 12.1454 20.0241 12.4286 19.9969 12.7229C19.8568 14.2387 19.2874 15.6836 18.3563 16.888C17.4251 18.0922 16.1699 19.0065 14.7381 19.5237C13.3062 20.0408 11.7562 20.1392 10.2704 19.8079C8.78467 19.4764 7.42393 18.729 6.34751 17.6526C5.27111 16.5762 4.52363 15.2155 4.19224 13.7298C3.86092 12.2439 3.95926 10.6939 4.47642 9.26198C4.9936 7.83019 5.90787 6.57502 7.11216 5.64381C8.31649 4.71268 9.76141 4.14335 11.2772 4.00319ZM9.91392 5.81764C9.23778 6.04803 8.60078 6.38915 8.03013 6.83034C7.0511 7.58729 6.30798 8.60781 5.88755 9.77174C5.46723 10.9356 5.38685 12.1949 5.65611 13.4026C5.92543 14.6105 6.53299 15.717 7.40806 16.5921C8.28312 17.4671 9.38964 18.0746 10.5975 18.344C11.8052 18.6132 13.0645 18.5329 14.2284 18.1126C15.3923 17.6922 16.4128 16.949 17.1698 15.97C17.6111 15.3991 17.9511 14.7616 18.1815 14.0852C17.3949 14.3867 16.5524 14.5324 15.701 14.5071L15.4149 14.4924C13.886 14.3784 12.4492 13.719 11.3651 12.635C10.2811 11.5509 9.62174 10.1141 9.50767 8.58522C9.437 7.637 9.57858 6.69238 9.91392 5.81764Z" fill="#111111"/>
</svg>
