<svg width="24" height="24" viewBox="0 0 24 24" fill="none" xmlns="http://www.w3.org/2000/svg">
<path d="M11 21V20C11 19.4477 11.4477 19 12 19C12.5523 19 13 19.4477 13 20V21C13 21.5523 12.5523 22 12 22C11.4477 22 11 21.5523 11 21ZM5.59277 16.9932C5.9833 16.6026 6.61631 16.6026 7.00684 16.9932C7.39736 17.3837 7.39736 18.0167 7.00684 18.4072L6.30664 19.1074C5.91608 19.4976 5.28297 19.4978 4.89258 19.1074C4.50218 18.717 4.50244 18.0839 4.89258 17.6934L5.59277 16.9932ZM16.9932 16.9932C17.3837 16.6026 18.0167 16.6026 18.4072 16.9932L19.1074 17.6934C19.4976 18.0839 19.4978 18.717 19.1074 19.1074C18.717 19.4978 18.0839 19.4976 17.6934 19.1074L16.9932 18.4072C16.6026 18.0167 16.6026 17.3837 16.9932 16.9932ZM15 12C15 11.2044 14.6837 10.4415 14.1211 9.87891C13.5585 9.3163 12.7956 9 12 9C11.2044 9 10.4415 9.3163 9.87891 9.87891C9.3163 10.4415 9 11.2044 9 12C9 12.7956 9.3163 13.5585 9.87891 14.1211C10.4415 14.6837 11.2044 15 12 15C12.7956 15 13.5585 14.6837 14.1211 14.1211C14.6837 13.5585 15 12.7956 15 12ZM4 11C4.55228 11 5 11.4477 5 12C5 12.5523 4.55228 13 4 13H3C2.44772 13 2 12.5523 2 12C2 11.4477 2.44772 11 3 11H4ZM21 11C21.5523 11 22 11.4477 22 12C22 12.5523 21.5523 13 21 13H20C19.4477 13 19 12.5523 19 12C19 11.4477 19.4477 11 20 11H21ZM4.89258 4.89258C5.28297 4.50218 5.91608 4.50244 6.30664 4.89258L7.00684 5.59277C7.39736 5.9833 7.39736 6.61631 7.00684 7.00684C6.61631 7.39736 5.9833 7.39736 5.59277 7.00684L4.89258 6.30664C4.50244 5.91608 4.50218 5.28297 4.89258 4.89258ZM17.6934 4.89258C18.0839 4.50244 18.717 4.50218 19.1074 4.89258C19.4978 5.28297 19.4976 5.91608 19.1074 6.30664L18.4072 7.00684C18.0167 7.39736 17.3837 7.39736 16.9932 7.00684C16.6026 6.61631 16.6026 5.9833 16.9932 5.59277L17.6934 4.89258ZM11 4V3C11 2.44772 11.4477 2 12 2C12.5523 2 13 2.44772 13 3V4C13 4.55228 12.5523 5 12 5C11.4477 5 11 4.55228 11 4ZM17 12C17 13.3261 16.4728 14.5975 15.5352 15.5352C14.5975 16.4728 13.3261 17 12 17C10.6739 17 9.40253 16.4728 8.46484 15.5352C7.52716 14.5975 7 13.3261 7 12C7 10.6739 7.52716 9.40253 8.46484 8.46484C9.40253 7.52716 10.6739 7 12 7C13.3261 7 14.5975 7.52716 15.5352 8.46484C16.4728 9.40253 17 10.6739 17 12Z" fill="#FDFDFC"/>
</svg>
